<svg id="Layer_1" data-name="Layer 1" xmlns="http://www.w3.org/2000/svg" viewBox="0 0 46.5 124.01"><defs><style>.cls-1{fill:#3e85c6;}</style></defs><title>bracket</title><path class="cls-1" d="M51,44.62V29.12A11.63,11.63,0,0,1,62.63,17.5H66.5V2H62.63A27.13,27.13,0,0,0,35.5,29.12v15.5A11.63,11.63,0,0,1,23.88,56.25H20v15.5h3.88A11.63,11.63,0,0,1,35.5,83.38v15.5A27.13,27.13,0,0,0,62.63,126H66.5V110.5H62.63A11.63,11.63,0,0,1,51,98.88V83.38A27,27,0,0,0,42.85,64,27.05,27.05,0,0,0,51,44.62Z" transform="translate(-20 -2)"/></svg>